<svg xmlns="http://www.w3.org/2000/svg" viewBox="0 0 1024 1024">
  <rect width="1024" height="1024" fill="#060a10"/>
  <path d="M512.13,747.67l-6.73,45.79-7.07,33.58c-3.15-2.24-6.65-4.05-8.96-6.33-10.46-10.33-19.85-20.54-29.85-31.58l-9.44-1.72-.49-27.47c-.04-2.51-.23-4.73-3.24-6.1l-.2,62.33-8.55,11.4-5.29-9.91c-4.37,5.27-7.77,9.97-12.68,14.13l-71.35,60.57-78.3-35.3,1.43-56.1,81.39-70.06-.41,43.16c6.13-14.73,1.25-30.92,5.85-45.22,7.47-16.91,20.68-30.3,28.35-47.65-11.54,11.39-20.81,22.9-31.07,34.86l-103.67-23.52-14.89-9.51c-10.99-7.03-21.54-13.09-32.39-21.04l-.27-50.16,203.11-203.32,6.38-39.63,11.87-68.13,43.67-43.76,8.12-75.55c4.31-40.09,13.88-90.35,34.75-126.71,18.76,32.07,29.6,82.86,33.46,118.56l9.03,83.44,43.76,43.57,18.26,107.85,203.15,203.49.05,50.21c-10.32,7.86-20.7,13.92-31.54,20.63l-16.12,9.99-103.67,23.38-30.92-34.73c7.11,17.51,21.39,30.15,27.62,47.3,5.22,14.38.42,30.81,6.07,45.48,2.94-15.05-1.81-28.89.03-43.26l81.35,70.46.9,56.14-77.77,35.22-31.22-26.89-40.11-33.92c-4.9-4.15-8.75-9.25-12.82-14.01l-4.94,9.8-8.15-10.67-.47-59.41c0-.5-.32-2.13-.41-2.58-.11-.51-1.03-.4-1.47-.11s-1.3,1.93-1.31,2.65l-.25,30.05-10.07,2.22-30.32,31.71c-2.07,2.16-5.39,3.73-8.68,5.71l-7.45-36.94-5.98-42.35Z" fill="#00c8ff"/>
</svg>
